#!OML:ASF F:\VICON\USERDATA\INSTALL\rory3\rory3.ASF
:FULLY-SPECIFIED
:DEGREES
256
root -1.73554 17.2771 1.18484 170.696 -31.7832 -180.42
lowerback 21.8497 -3.96136 -1.49311
upperback 0.383858 -5.58259 2.27446
thorax -11.4333 -2.54641 5.13744
lowerneck -6.77608 -8.5128 -5.08697
upperneck 5.66361 -10.9289 -0.122131
head 3.30979 -5.55117 0.264493
rclavicle 7.23079e-014 3.97569e-015
rhumerus 31.8667 3.46463 -60.9758
rradius 100.501
rwrist 24.0563
rhand 8.22093 -14.5947
rfingers 7.12502
rthumb 33.4371 -41.5016
lclavicle 7.23079e-014 3.97569e-015
lhumerus 38.9494 -32.9152 86.3275
lradius 77.6843
lwrist 53.1101
lhand -18.1626 62.5759
lfingers 7.12502
lthumb 8.11336 -452.4
rfemur -17.884 6.19567 15.4004
rtibia 49.3551
rfoot -18.9224 -3.09447
rtoes -2.0994
lfemur -13.5002 -0.0757542 -26.4023
ltibia 43.8978
lfoot -17.5904 -6.97486
ltoes -2.90096
257
root -1.73812 17.2434 1.14369 171.006 -32.3242 -180.995
lowerback 21.9523 -4.14154 -1.94556
upperback -0.0320254 -5.9297 1.99748
thorax -11.9203 -2.6478 5.2264
lowerneck -6.00997 -8.36776 -4.67098
upperneck 5.72131 -10.8021 -0.461084
head 3.13017 -5.49753 0.1333
rclavicle 9.42612e-014 1.66979e-014
rhumerus 32.2209 3.88678 -60.6826
rradius 100.436
rwrist 24.0611
rhand 14.4887 -18.4353
rfingers 7.12502
rthumb 39.3702 -43.8483
lclavicle 9.42612e-014 1.66979e-014
lhumerus 39.4335 -32.7217 85.8344
lradius 77.4412
lwrist 52.6734
lhand -17.7801 61.6801
lfingers 7.12502
lthumb 8.48252 -451.49
rfemur -17.9126 5.33601 14.8731
rtibia 49.9538
rfoot -19.3007 -3.37024
rtoes -4.79344
lfemur -13.6474 -0.16676 -26.9541
ltibia 44.3943
lfoot -17.9939 -7.10009
ltoes -3.56017
258
root -1.73352 17.2129 1.09665 170.854 -32.6047 -180.841
lowerback 21.9346 -4.09735 -1.8445
upperback 0.170664 -5.84554 2.1477
thorax -11.6795 -2.63087 5.2959
lowerneck -6.99475 -8.58658 -4.81187
upperneck 5.88148 -11.0098 -0.660595
head 3.37369 -5.61031 0.0273331
rclavicle -2.53823e-014 -5.00937e-014
rhumerus 33.6304 3.63986 -59.611
rradius 100.683
rwrist 23.882
rhand 17.1629 -20.6681
rfingers 7.12502
rthumb 41.8835 -45.297
lclavicle -2.53823e-014 -5.00937e-014
lhumerus 40.8646 -32.5151 85.4426
lradius 77.2602
lwrist 52.2792
lhand -17.5491 60.2714
lfingers 7.12502
lthumb 8.70543 -450.072
rfemur -17.8921 4.84002 15.1188
rtibia 50.5314
rfoot -19.9317 -3.04112
rtoes -2.70735
lfemur -13.7474 -0.102631 -26.7008
ltibia 44.9411
lfoot -18.424 -7.34692
ltoes -3.02547
259
root -1.72448 17.1891 1.03855 170.27 -32.6175 -180.195
lowerback 22.1287 -4.07306 -1.36671
upperback 0.203466 -5.68717 2.2938
thorax -11.7957 -2.57931 5.16108
lowerneck -7.07258 -8.72205 -4.97865
upperneck 5.94067 -11.17 -0.6783
head 3.42301 -5.69519 0.0327409
rclavicle 4.5472e-015 -3.49861e-014
rhumerus 34.5321 3.3144 -59.026
rradius 100.598
rwrist 24.6756
rhand 16.0943 -18.2114
rfingers 7.12502
rthumb 40.8807 -43.1656
lclavicle 4.5472e-015 -3.49861e-014
lhumerus 41.8077 -32.3907 85.1574
lradius 77.0219
lwrist 51.9069
lhand -17.2854 58.9562
lfingers 7.12502
lthumb 8.95998 -271.254
rfemur -17.6165 4.72169 15.9893
rtibia 50.9949
rfoot -20.3838 -2.83753
rtoes 0.939029
lfemur -13.6612 0.193277 -25.8904
ltibia 45.5144
lfoot -18.7801 -7.9153
ltoes -2.129
260
root -1.72411 17.161 0.977844 170.064 -32.74 -180.211
lowerback 22.1953 -4.00201 -1.30738
upperback 0.244291 -5.58574 2.24192
thorax -11.806 -2.53777 5.04242
lowerneck -7.24002 -8.87229 -5.19059
upperneck 6.20578 -11.3461 -0.58323
head 3.57404 -5.78625 0.0683748
rclavicle -1.69091e-014 -2.06736e-014
rhumerus 35.3435 3.02283 -58.3909
rradius 100.715
rwrist 25.3155
rhand 14.4115 -16.4135
rfingers 7.12502
rthumb 39.2974 -41.8477
lclavicle -1.69091e-014 -2.06736e-014
lhumerus 42.8518 -32.3397 84.8262
lradius 76.7971
lwrist 51.6124
lhand -17.0503 57.7556
lfingers 7.12502
lthumb 9.18683 -272.464
rfemur -17.2996 4.5171 16.1703
rtibia 51.3874
rfoot -20.8543 -2.97731
rtoes 1.30061
lfemur -13.5175 0.377377 -25.7412
ltibia 46.0809
lfoot -19.2817 -8.06438
ltoes -0.79838
261
root -1.72721 17.1345 0.919715 170.13 -33.0963 -180.45
lowerback 22.075 -4.03272 -1.48954
upperback 0.233986 -5.67423 2.18084
thorax -11.7322 -2.57164 5.09175
lowerneck -7.41453 -8.87649 -5.3897
upperneck 6.70061 -11.3325 -0.446721
head 3.807 -5.78484 0.119319
rclavicle 1.23669e-013 -2.06736e-014
rhumerus 36.2764 2.90772 -57.806
rradius 100.967
rwrist 24.9828
rhand 12.8448 -15.2494
rfingers 7.12502
rthumb 37.8193 -41.0976
lclavicle 1.23669e-013 -2.06736e-014
lhumerus 43.7608 -32.1124 84.5248
lradius 76.6981
lwrist 51.3673
lhand -17.134 56.344
lfingers 7.12502
lthumb 9.10604 -273.873
rfemur -17.1088 4.33376 16.0481
rtibia 51.7447
rfoot -21.4608 -3.17426
rtoes 0.197364
lfemur -13.48 0.284416 -25.8512
ltibia 46.6096
lfoot -19.5841 -8.57115
ltoes 1.98118
262
root -1.72608 17.1056 0.867441 169.981 -33.1762 -180.372
lowerback 22.0072 -4.02049 -1.58907
upperback 0.192471 -5.67634 2.21122
thorax -11.7286 -2.56435 5.17848
lowerneck -6.8272 -8.69328 -5.3347
upperneck 6.56998 -11.1413 -0.329422
head 3.64591 -5.68509 0.194698
rclavicle 6.38906e-014 -2.8625e-014
rhumerus 37.0256 2.78266 -57.4862
rradius 100.584
rwrist 25.7542
rhand 10.134 -11.9107
rfingers 7.12502
rthumb 35.2534 -38.4072
lclavicle 6.38906e-014 -2.8625e-014
lhumerus 44.4424 -31.7823 84.3261
lradius 76.5684
lwrist 50.7524
lhand -16.9256 55.1913
lfingers 7.12502
lthumb 9.30713 -275.034
rfemur -17.014 4.52448 16.2701
rtibia 52.1906
rfoot -21.705 -3.39288
rtoes 0.179376
lfemur -13.5053 0.431338 -25.6428
ltibia 47.1807
lfoot -19.7873 -8.99937
ltoes 3.14531
